<?xml version="1.0" encoding="utf-8"?><svg xmlns="http://www.w3.org/2000/svg" xmlns:xlink="http://www.w3.org/1999/xlink" width="1920" height="628" preserveAspectRatio="xMidYMid" viewBox="0 0 1920 628" style="z-index:1;margin-right:-2px;display:block;animation-play-state:paused" ><g transform="translate(960,314) scale(1,-1) translate(-960,-314)" style="transform:matrix(1, 0, 0, -1, 0, 628);animation-play-state:paused" ><linearGradient id="lg-0.1882469285748618" x1="0" x2="1" y1="0" y2="0" style="animation-play-state:paused" ><stop stop-color="#5cd397" offset="0" style="animation-play-state:paused" ></stop>

  
<stop stop-color="#1fbf6f" offset="1" style="animation-play-state:paused" ></stop></linearGradient>
<path d="M 0 0 L 0 313.419 Q 192 130.845 384 117.312 T 768 -112.366 T 1152 -273.937 T 1536 -421.134 T 1920 -726.742 L 1920 0 Z" fill="url(#lg-0.1882469285748618)" opacity="0.49" style="opacity:0.49;animation-play-state:paused" ></path>
<path d="M 0 0 L 0 296.794 Q 192 77.2287 384 33.0137 T 768 -34.2095 T 1152 -315.802 T 1536 -534.865 T 1920 -715.141 L 1920 0 Z" fill="url(#lg-0.1882469285748618)" opacity="0.49" style="opacity:0.49;animation-play-state:paused" ></path>
<path d="M 0 0 L 0 284.855 Q 192 176.018 384 135.048 T 768 -144.759 T 1152 -245.181 T 1536 -460.554 T 1920 -702.111 L 1920 0 Z" fill="url(#lg-0.1882469285748618)" opacity="0.49" style="opacity:0.49;animation-play-state:paused" ></path></g></svg>