<?xml version="1.0" encoding="utf-8"?><svg xmlns="http://www.w3.org/2000/svg" xmlns:xlink="http://www.w3.org/1999/xlink" width="1917" height="628" preserveAspectRatio="xMidYMid" viewBox="0 0 1917 628" style="z-index:1;margin-right:-2px;display:block;background-repeat-y:initial;background-repeat-x:initial;background-color:rgb(255, 255, 255);animation-play-state:paused" ><g transform="translate(958.5,314) scale(-1,1) translate(-958.5,-314)" style="transform:matrix(-1, 0, 0, 1, 1917, 0);animation-play-state:paused" ><linearGradient id="lg-0.6047098282997527" x1="0" x2="1" y1="0" y2="0" style="animation-play-state:paused" ><stop stop-color="#5cd397" offset="0" style="animation-play-state:paused" ></stop>

  
<stop stop-color="#1fbf6f" offset="1" style="animation-play-state:paused" ></stop></linearGradient>
<path d="M 0 0 L 0 502.215 Q 191.7 110.325 383.4 91.3244 T 766.8 -305.362 T 1150.2 -706.807 T 1533.6 -1127.85 T 1917 -1528.85 L 1917 0 Z" fill="url(#lg-0.6047098282997527)" opacity="0.24000000000000002" style="opacity:0.24;animation-play-state:paused" ></path>
<path d="M 0 0 L 0 513.507 Q 191.7 196.036 383.4 155.471 T 766.8 -205.768 T 1150.2 -560.461 T 1533.6 -913.644 T 1917 -1275.21 L 1917 0 Z" fill="url(#lg-0.6047098282997527)" opacity="0.24000000000000002" style="opacity:0.24;animation-play-state:paused" ></path>
<path d="M 0 0 L 0 507.022 Q 191.7 152.206 383.4 109.246 T 766.8 -265.227 T 1150.2 -673.188 T 1533.6 -1054.99 T 1917 -1434.48 L 1917 0 Z" fill="url(#lg-0.6047098282997527)" opacity="0.24000000000000002" style="opacity:0.24;animation-play-state:paused" ></path></g></svg>